<svg width="35" height="35" viewBox="0 0 35 35" fill="none" xmlns="http://www.w3.org/2000/svg">
<path d="M28.4331 11.6506L17.5 22.3081L6.56687 11.6506C6.37153 11.4598 6.10931 11.353 5.83625 11.353C5.56319 11.353 5.30096 11.4598 5.10562 11.6506C5.01104 11.7433 4.9359 11.8539 4.8846 11.976C4.83331 12.0981 4.80688 12.2292 4.80688 12.3616C4.80688 12.494 4.83331 12.6251 4.8846 12.7471C4.9359 12.8692 5.01104 12.9798 5.10562 13.0725L16.7366 24.4125C16.9408 24.6116 17.2148 24.723 17.5 24.723C17.7852 24.723 18.0592 24.6116 18.2634 24.4125L29.8944 13.0747C29.9896 12.982 30.0653 12.8711 30.117 12.7486C30.1687 12.6261 30.1954 12.4945 30.1954 12.3616C30.1954 12.2286 30.1687 12.097 30.117 11.9746C30.0653 11.8521 29.9896 11.7412 29.8944 11.6484C29.699 11.4576 29.4368 11.3508 29.1638 11.3508C28.8907 11.3508 28.6285 11.4576 28.4331 11.6484V11.6506Z" fill="black"/>
</svg>
