<svg width="35" height="35" viewBox="0 0 35 35" fill="none" xmlns="http://www.w3.org/2000/svg">
<path d="M10.8543 7.80206C11.7862 7.80206 12.648 7.87498 13.4355 8.09081C14.2245 8.23519 14.8705 8.52394 15.4437 8.88415C16.0183 9.24581 16.4485 9.7504 16.7343 10.3994C17.0216 11.0483 17.166 11.8431 17.166 12.7079C17.166 13.7185 16.9501 14.5833 16.4485 15.2323C16.0183 15.8827 15.3008 16.4587 14.4403 16.8919C15.6595 17.2535 16.5914 17.9025 17.166 18.7687C17.7391 19.6335 18.0978 20.7156 18.0978 21.9421C18.0978 22.9527 17.882 23.8175 17.5233 24.5394C17.166 25.2612 16.5914 25.9102 15.9453 26.3433C15.2435 26.8075 14.4678 27.1488 13.6514 27.3525C12.791 27.5698 11.9305 27.7141 11.0701 27.7141H1.45825V7.80206H10.8543ZM10.2797 15.8812C11.0687 15.8812 11.7147 15.6654 12.2164 15.3052C12.718 14.945 12.9339 14.2946 12.9339 13.5012C12.9339 13.0681 12.861 12.6364 12.718 12.3477C12.5751 12.0589 12.3593 11.8416 12.0735 11.6258C11.7862 11.4814 11.4989 11.3371 11.1401 11.2656C10.7814 11.1927 10.4241 11.1927 9.99242 11.1927H5.83325V15.8827H10.2812L10.2797 15.8812ZM10.4955 24.395C10.9258 24.395 11.356 24.3221 11.7147 24.2506C12.0735 24.1777 12.4322 24.0348 12.718 23.8175C13.0103 23.6064 13.2547 23.336 13.4355 23.0241C13.5785 22.6639 13.7228 22.2308 13.7228 21.7262C13.7228 20.7156 13.4355 19.9937 12.8624 19.4891C12.2878 19.056 11.4989 18.8402 10.567 18.8402H5.83325V24.3964L10.4955 24.395ZM24.338 24.3221C24.9112 24.8996 25.7716 25.1883 26.9193 25.1883C27.7083 25.1883 28.4258 24.9725 28.9989 24.6123C29.5735 24.1791 29.9322 23.746 30.0751 23.3144H33.5897C33.0151 25.0439 32.1547 26.2704 31.0085 27.0652C29.8593 27.7856 28.4972 28.2187 26.8478 28.2187C25.7925 28.222 24.7461 28.0261 23.7635 27.6412C22.8792 27.3096 22.0907 26.7646 21.468 26.0546C20.802 25.3904 20.3097 24.5725 20.0345 23.6731C19.6758 22.7354 19.5314 21.7262 19.5314 20.5712C19.5314 19.4891 19.6758 18.48 20.0345 17.5408C20.38 16.6372 20.8909 15.8058 21.541 15.0894C22.1959 14.4168 22.9749 13.8775 23.8349 13.5012C24.7926 13.1163 25.8157 12.9202 26.8478 12.9237C28.067 12.9237 29.1432 13.141 30.0751 13.6456C31.0085 14.1502 31.7245 14.7277 32.2976 15.5939C32.8722 16.3873 33.3039 17.325 33.5897 18.3356C33.7326 19.3448 33.8041 20.3554 33.7326 21.5089H23.3333C23.3333 22.6639 23.7635 23.746 24.338 24.3235V24.3221ZM28.856 16.7475C28.3543 16.2429 27.5653 15.9541 26.632 15.9541C25.9874 15.9541 25.4843 16.1 25.0541 16.3158C24.6239 16.5316 24.338 16.8204 24.0508 17.1091C23.7863 17.3879 23.6111 17.7393 23.5476 18.1183C23.4762 18.48 23.4047 18.7687 23.4047 19.056H29.8593C29.7164 17.9739 29.3576 17.2535 28.856 16.7475ZM22.5443 9.1729H30.5768V11.1212H22.5458V9.1729H22.5443Z" fill="black"/>
</svg>
