<svg width="44" height="45" viewBox="0 0 44 45" fill="none" xmlns="http://www.w3.org/2000/svg">
<g clip-path="url(#clip0_27_246)">
<path d="M44 10.3565V35.9988C44 37.6654 42.658 39.0149 41.0007 39.0149H33.9992V21.9212L22 30.9732L10.0008 21.9212V39.0167H2.99933C2.6053 39.0167 2.21513 38.9386 1.85112 38.7869C1.4871 38.6353 1.15637 38.4129 0.877837 38.1327C0.599299 37.8524 0.378408 37.5197 0.227785 37.1535C0.077162 36.7874 -0.000240291 36.395 5.60361e-07 35.9988V10.3565C5.60361e-07 6.62692 4.23317 4.49759 7.1995 6.73569L10.0008 8.85027L22 17.8985L33.9992 8.84659L36.8005 6.73569C39.765 4.49944 44 6.62692 44 10.3565Z" fill="black"/>
</g>
<defs>
<clipPath id="clip0_27_246">
<rect width="44" height="44.2458" fill="white" transform="translate(0 0.296143)"/>
</clipPath>
</defs>
</svg>
