<svg width="35" height="35" viewBox="0 0 35 35" fill="none" xmlns="http://www.w3.org/2000/svg">
<path d="M18.9991 2.91812C20.0633 2.91403 21.1275 2.92473 22.1914 2.9502L22.4743 2.96041C22.801 2.97207 23.1233 2.98666 23.5127 3.00416C25.0643 3.07707 26.1231 3.32207 27.052 3.68228C28.0145 4.0527 28.8254 4.55437 29.6362 5.3652C30.3776 6.09379 30.9514 6.97512 31.3177 7.94791C31.6779 8.87687 31.9229 9.93707 31.9958 11.4887C32.0133 11.8767 32.0279 12.2004 32.0395 12.5271L32.0483 12.81C32.0742 13.8734 32.0854 14.9371 32.0818 16.0008L32.0833 17.0887V18.9992C32.0869 20.0634 32.0757 21.1276 32.0497 22.1915L32.041 22.4744C32.0293 22.801 32.0147 23.1233 31.9972 23.5127C31.9243 25.0644 31.6764 26.1231 31.3177 27.0521C30.9526 28.0259 30.3786 28.9079 29.6362 29.6362C28.907 30.3775 28.0252 30.9513 27.052 31.3177C26.1231 31.6779 25.0643 31.9229 23.5127 31.9958C23.1233 32.0133 22.801 32.0279 22.4743 32.0396L22.1914 32.0483C21.1275 32.0742 20.0633 32.0854 18.9991 32.0819L17.9112 32.0833H16.0022C14.938 32.0869 13.8738 32.0757 12.8099 32.0498L12.527 32.041C12.1808 32.0285 11.8347 32.0139 11.4887 31.9973C9.93703 31.9244 8.87828 31.6765 7.94786 31.3177C6.97469 30.9522 6.09321 30.3783 5.36515 29.6362C4.62293 28.9075 4.04861 28.0256 3.68224 27.0521C3.32203 26.1231 3.07703 25.0644 3.00411 23.5127C2.98787 23.1667 2.97329 22.8205 2.96036 22.4744L2.95307 22.1915C2.92618 21.1276 2.91403 20.0634 2.91661 18.9992V16.0008C2.91254 14.9371 2.92324 13.8734 2.9487 12.81L2.9589 12.5271C2.97057 12.2004 2.98515 11.8767 3.00265 11.4887C3.07557 9.93561 3.32057 8.87832 3.68078 7.94791C4.04736 6.97464 4.62281 6.09356 5.36661 5.36666C6.09417 4.624 6.9751 4.04916 7.94786 3.68228C8.87828 3.32207 9.93557 3.07707 11.4887 3.00416L12.527 2.96041L12.8099 2.95312C13.8733 2.92624 14.9371 2.91409 16.0008 2.91666L18.9991 2.91812ZM17.4999 10.2098C16.5338 10.1961 15.5746 10.3746 14.678 10.7349C13.7815 11.0952 12.9655 11.63 12.2774 12.3084C11.5894 12.9868 11.043 13.7951 10.6701 14.6865C10.2972 15.5779 10.1052 16.5345 10.1052 17.5007C10.1052 18.467 10.2972 19.4236 10.6701 20.3149C11.043 21.2063 11.5894 22.0147 12.2774 22.693C12.9655 23.3714 13.7815 23.9063 14.678 24.2666C15.5746 24.6268 16.5338 24.8053 17.4999 24.7917C19.4338 24.7917 21.2885 24.0234 22.6559 22.656C24.0234 21.2885 24.7916 19.4339 24.7916 17.5C24.7916 15.5661 24.0234 13.7115 22.6559 12.344C21.2885 10.9766 19.4338 10.2098 17.4999 10.2098ZM17.4999 13.1264C18.0811 13.1157 18.6586 13.2209 19.1986 13.4359C19.7386 13.6509 20.2304 13.9713 20.6452 14.3785C21.0601 14.7857 21.3896 15.2714 21.6146 15.8074C21.8395 16.3433 21.9554 16.9187 21.9555 17.5C21.9556 18.0812 21.8399 18.6567 21.6151 19.1927C21.3903 19.7287 21.061 20.2146 20.6463 20.6219C20.2316 21.0292 19.7399 21.3498 19.2 21.565C18.66 21.7801 18.0826 21.8855 17.5014 21.875C16.3411 21.875 15.2283 21.4141 14.4078 20.5936C13.5873 19.7731 13.1264 18.6603 13.1264 17.5C13.1264 16.3397 13.5873 15.2269 14.4078 14.4064C15.2283 13.5859 16.3411 13.125 17.5014 13.125L17.4999 13.1264ZM25.1562 8.02228C24.6857 8.04111 24.2408 8.24125 23.9146 8.58078C23.5884 8.92031 23.4062 9.37289 23.4062 9.84374C23.4062 10.3146 23.5884 10.7672 23.9146 11.1067C24.2408 11.4462 24.6857 11.6464 25.1562 11.6652C25.6397 11.6652 26.1033 11.4731 26.4452 11.1313C26.7871 10.7894 26.9791 10.3257 26.9791 9.84228C26.9791 9.35881 26.7871 8.89515 26.4452 8.55329C26.1033 8.21142 25.6397 8.01937 25.1562 8.01937V8.02228Z" fill="black"/>
</svg>
