<svg width="44" height="44" viewBox="0 0 44 44" fill="none" xmlns="http://www.w3.org/2000/svg">
<path d="M23.8846 3.66852C25.2224 3.66338 26.5603 3.67683 27.8978 3.70885L28.2534 3.72168C28.6641 3.73635 29.0693 3.75468 29.5588 3.77668C31.5094 3.86835 32.8404 4.17635 34.0083 4.62918C35.2183 5.09485 36.2376 5.72552 37.2569 6.74485C38.1889 7.66079 38.9103 8.76875 39.3708 9.99168C39.8236 11.1595 40.1316 12.4923 40.2233 14.443C40.2453 14.9307 40.2636 15.3377 40.2783 15.7483L40.2893 16.104C40.3218 17.4409 40.3359 18.7781 40.3314 20.1154L40.3333 21.483V23.8847C40.3378 25.2225 40.3237 26.5604 40.2911 27.8979L40.2801 28.2535C40.2654 28.6642 40.2471 29.0693 40.2251 29.5588C40.1334 31.5095 39.8218 32.8405 39.3708 34.0083C38.9118 35.2326 38.1903 36.3414 37.2569 37.257C36.3402 38.1889 35.2317 38.9102 34.0083 39.3708C32.8404 39.8237 31.5094 40.1317 29.5588 40.2234C29.0693 40.2453 28.6641 40.2637 28.2534 40.2784L27.8978 40.2893C26.5603 40.3219 25.2224 40.336 23.8846 40.3315L22.5169 40.3334H20.1171C18.7792 40.3379 17.4414 40.3238 16.1039 40.2912L15.7483 40.2802C15.313 40.2644 14.8779 40.2461 14.4429 40.2252C12.4923 40.1335 11.1613 39.8218 9.99158 39.3708C8.76817 38.9113 7.66002 38.1899 6.74475 37.257C5.81167 36.3409 5.08966 35.2322 4.62909 34.0083C4.17625 32.8405 3.86825 31.5095 3.77659 29.5588C3.75617 29.1238 3.73783 28.6887 3.72159 28.2535L3.71242 27.8979C3.67862 26.5604 3.66334 25.2226 3.66659 23.8847V20.1154C3.66147 18.7781 3.67491 17.4409 3.70692 16.104L3.71975 15.7483C3.73442 15.3377 3.75275 14.9307 3.77475 14.443C3.86642 12.4905 4.17442 11.1613 4.62725 9.99168C5.0881 8.76815 5.81152 7.6605 6.74659 6.74668C7.66123 5.81306 8.76868 5.0904 9.99158 4.62918C11.1613 4.17635 12.4904 3.86835 14.4429 3.77668L15.7483 3.72168L16.1039 3.71252C17.4408 3.67873 18.778 3.66345 20.1153 3.66668L23.8846 3.66852ZM21.9999 12.8352C20.7853 12.818 19.5795 13.0424 18.4524 13.4953C17.3253 13.9482 16.2994 14.6206 15.4345 15.4734C14.5695 16.3263 13.8827 17.3425 13.4138 18.4631C12.945 19.5837 12.7036 20.7862 12.7036 22.0009C12.7036 23.2156 12.945 24.4182 13.4138 25.5388C13.8827 26.6594 14.5695 27.6756 15.4345 28.5284C16.2994 29.3812 17.3253 30.0536 18.4524 30.5066C19.5795 30.9595 20.7853 31.1839 21.9999 31.1667C24.4311 31.1667 26.7626 30.2009 28.4817 28.4818C30.2008 26.7627 31.1666 24.4312 31.1666 22C31.1666 19.5689 30.2008 17.2373 28.4817 15.5182C26.7626 13.7991 24.4311 12.8352 21.9999 12.8352ZM21.9999 16.5019C22.7305 16.4884 23.4565 16.6206 24.1354 16.8909C24.8143 17.1611 25.4325 17.564 25.954 18.0758C26.4755 18.5877 26.8897 19.1984 27.1726 19.8721C27.4554 20.5459 27.6011 21.2693 27.6012 22C27.6014 22.7307 27.4559 23.4541 27.1733 24.128C26.8907 24.8019 26.4766 25.4127 25.9553 25.9247C25.434 26.4367 24.8159 26.8398 24.1371 27.1103C23.4583 27.3807 22.7324 27.5132 22.0018 27.5C20.5431 27.5 19.1441 26.9206 18.1127 25.8891C17.0812 24.8577 16.5018 23.4587 16.5018 22C16.5018 20.5413 17.0812 19.1424 18.1127 18.1109C19.1441 17.0795 20.5431 16.5 22.0018 16.5L21.9999 16.5019ZM31.6249 10.0852C31.0335 10.1089 30.4741 10.3605 30.064 10.7873C29.6539 11.2141 29.4249 11.7831 29.4249 12.375C29.4249 12.9669 29.6539 13.5359 30.064 13.9627C30.4741 14.3896 31.0335 14.6412 31.6249 14.6648C32.2327 14.6648 32.8156 14.4234 33.2454 13.9936C33.6751 13.5639 33.9166 12.981 33.9166 12.3732C33.9166 11.7654 33.6751 11.1825 33.2454 10.7527C32.8156 10.323 32.2327 10.0815 31.6249 10.0815V10.0852Z" fill="black"/>
</svg>
