<svg width="35" height="35" viewBox="0 0 35 35" fill="none" xmlns="http://www.w3.org/2000/svg">
<g clip-path="url(#clip0_12_55)">
<path fill-rule="evenodd" clip-rule="evenodd" d="M28.8415 6.46043C29.2019 6.30875 29.5964 6.25643 29.9838 6.30893C30.3713 6.36143 30.7376 6.51682 31.0446 6.75893C31.3516 7.00103 31.5882 7.32101 31.7296 7.68555C31.871 8.05009 31.9121 8.44586 31.8486 8.83168L28.5411 28.894C28.2203 30.8292 26.0969 31.939 24.3221 30.975C22.8376 30.1686 20.6326 28.9261 18.6492 27.6296C17.6576 26.9806 14.6199 24.9025 14.9932 23.4238C15.314 22.1594 20.4182 17.4081 23.3349 14.5833C24.4796 13.4736 23.9576 12.8333 22.6057 13.8542C19.2471 16.3888 13.8586 20.2431 12.0765 21.3281C10.5044 22.2848 9.68486 22.4481 8.70486 22.2848C6.91694 21.9873 5.25881 21.5265 3.90548 20.965C2.07673 20.2067 2.16569 17.6925 3.90402 16.9604L28.8415 6.46043Z" fill="black"/>
</g>
<defs>
<clipPath id="clip0_12_55">
<rect width="35" height="35" fill="white"/>
</clipPath>
</defs>
</svg>
