<svg width="44" height="44" viewBox="0 0 44 44" fill="none" xmlns="http://www.w3.org/2000/svg">
<path fill-rule="evenodd" clip-rule="evenodd" d="M36.258 8.12172C36.7111 7.93104 37.2069 7.86528 37.694 7.93127C38.1811 7.99727 38.6416 8.19262 39.0276 8.49698C39.4136 8.80135 39.7109 9.2036 39.8887 9.66188C40.0664 10.1202 40.1181 10.6177 40.0383 11.1027L35.8803 36.3239C35.477 38.7567 32.8077 40.1519 30.5765 38.9401C28.7102 37.9262 25.9382 36.3642 23.4448 34.7344C22.1982 33.9186 18.3793 31.3061 18.8487 29.4471C19.252 27.8576 25.6687 21.8846 29.3353 18.3334C30.7745 16.9382 30.1182 16.1334 28.4187 17.4167C24.1965 20.6031 17.4223 25.4486 15.182 26.8126C13.2057 28.0152 12.1753 28.2206 10.9433 28.0152C8.69568 27.6412 6.61118 27.0619 4.90985 26.3561C2.61085 25.4027 2.72268 22.2421 4.90801 21.3217L36.258 8.12172Z" fill="black"/>
</svg>
