<svg width="35" height="35" viewBox="0 0 35 35" fill="none" xmlns="http://www.w3.org/2000/svg">
<path d="M17.5 3.28125C9.64756 3.28125 3.28125 9.64756 3.28125 17.5C3.28125 25.3401 9.66055 31.7188 17.5 31.7188C25.3518 31.7188 31.7188 25.3518 31.7188 17.5C31.7188 9.65986 25.3401 3.28125 17.5 3.28125ZM24.8828 19.6875H16.6797C16.6072 19.6875 16.5376 19.6587 16.4863 19.6074C16.4351 19.5561 16.4062 19.4866 16.4062 19.4141V7.92969C16.4062 7.85717 16.4351 7.78762 16.4863 7.73634C16.5376 7.68506 16.6072 7.65625 16.6797 7.65625H18.3203C18.3928 7.65625 18.4624 7.68506 18.5137 7.73634C18.5649 7.78762 18.5938 7.85717 18.5938 7.92969V17.5H24.8828C24.9553 17.5 25.0249 17.5288 25.0762 17.5801C25.1274 17.6314 25.1562 17.7009 25.1562 17.7734V19.4141C25.1562 19.4866 25.1274 19.5561 25.0762 19.6074C25.0249 19.6587 24.9553 19.6875 24.8828 19.6875Z" fill="black"/>
</svg>
