<svg width="35" height="35" viewBox="0 0 35 35" fill="none" xmlns="http://www.w3.org/2000/svg">
<path d="M29.19 17.0974C28.0793 18.2105 26.6634 18.9692 25.1215 19.2776C23.5796 19.586 21.9809 19.4302 20.5275 18.8299L11.06 30.2399C9.32748 31.9724 6.52748 31.9724 4.79498 30.2399C3.06248 28.5074 3.06248 25.7074 4.79498 23.9924L16.205 14.5074C15.015 11.6199 15.5925 8.18991 17.9375 5.84491C20.1775 3.60491 23.3975 3.00991 26.1975 3.98992L21.14 9.04742L26.075 13.9824L31.08 8.95991C32.0075 11.7249 31.395 14.8924 29.19 17.0974ZM6.66748 28.3674C7.36748 29.0499 8.48748 29.0499 9.16998 28.3674C9.86998 27.6674 9.86998 26.5474 9.16998 25.8649C8.48748 25.1649 7.36748 25.1649 6.66748 25.8649C6.33937 26.1987 6.15551 26.6481 6.15551 27.1162C6.15551 27.5842 6.33937 28.0336 6.66748 28.3674Z" fill="black"/>
</svg>
