<svg width="35" height="35" viewBox="0 0 35 35" fill="none" xmlns="http://www.w3.org/2000/svg">
<path d="M6.56663 23.3494L17.4998 12.6919L28.4329 23.3494C28.6282 23.5402 28.8904 23.647 29.1635 23.647C29.4366 23.647 29.6988 23.5402 29.8941 23.3494C29.9887 23.2567 30.0639 23.1461 30.1152 23.024C30.1664 22.9019 30.1929 22.7708 30.1929 22.6384C30.1929 22.506 30.1664 22.3749 30.1152 22.2529C30.0639 22.1308 29.9887 22.0202 29.8941 21.9275L18.2632 10.5875C18.0589 10.3884 17.785 10.277 17.4998 10.277C17.2145 10.277 16.9406 10.3884 16.7363 10.5875L5.10538 21.9253C5.01013 22.018 4.93442 22.1289 4.88273 22.2514C4.83103 22.3739 4.8044 22.5055 4.8044 22.6384C4.8044 22.7714 4.83103 22.903 4.88273 23.0254C4.93442 23.1479 5.01013 23.2588 5.10538 23.3516C5.30072 23.5424 5.56294 23.6492 5.836 23.6492C6.10906 23.6492 6.37129 23.5424 6.56663 23.3516L6.56663 23.3494Z" fill="white"/>
</svg>
